<svg xmlns="http://www.w3.org/2000/svg" width="500" height="500" viewBox="0 0 375 375"><defs><clipPath id="c96b942a2d"><path d="M37.531 133H337.47v199H37.53Zm0 0"/></clipPath><clipPath id="da6c9e6ae2"><path d="M125 133h212.469v199H125Zm0 0"/></clipPath></defs><path fill="#4caf50" d="M277.516 119.5c-.946-4.922-2.114-9.797-2.114-14.8V90.68c0-22.797-16.886-42.77-39.597-44.91-26.055-2.454-48.055 18.066-48.055 43.632V104.7c0 5.004-1.164 9.88-2.113 14.801q-.101.529-.102 1.07a5.76 5.76 0 0 0 5.758 5.758 5.75 5.75 0 0 0 5.648-6.828c-.945-4.922-2.105-9.797-2.105-14.8V90.472c0-19.125 14.16-35.852 33.195-37.649 21.844-2.058 40.285 15.14 40.285 36.578V104.7c0 5.004-1.156 9.88-2.105 14.801q-.1.529-.102 1.07a5.753 5.753 0 1 0 11.508 0q.002-.541-.101-1.07m0 0"/><g clip-path="url(#c96b942a2d)"><path fill="#4caf50" d="m337.219 310.344-26.942-161.61c-1.472-8.84-9.129-15.32-18.097-15.32H170.973c-8.97 0-16.625 6.48-18.094 15.32l-3.371 20.23a7.72 7.72 0 0 1-7.61 6.446H85.801a6.135 6.135 0 0 0-6.13 6.133 6.13 6.13 0 0 0 6.13 6.137H201.09a6.143 6.143 0 0 1 6.137 6.14 6.135 6.135 0 0 1-6.137 6.137H43.664a6.14 6.14 0 0 0-6.133 6.137c0 3.383 2.75 6.14 6.133 6.14h168.473c3.39 0 6.14 2.739 6.14 6.13 0 3.398-2.75 6.14-6.14 6.14H89.48c-3.382 0-6.128 2.754-6.128 6.137a6.127 6.127 0 0 0 6.128 6.129h99.583a6.143 6.143 0 0 1 0 12.285H65.352c-3.391 0-6.141 2.742-6.141 6.129 0 3.39 2.75 6.14 6.14 6.14h59.653c4.766 0 8.394 4.274 7.61 8.98l-6.677 40.04c-1.867 11.18 6.758 21.355 18.094 21.355h175.09c11.336 0 19.961-10.176 18.098-21.355m0 0"/></g><g clip-path="url(#da6c9e6ae2)"><path fill="#1f2937" d="m337.219 310.344-26.942-161.61c-1.472-8.84-9.129-15.32-18.097-15.32h-17.946c-9.894 0-17.586 8.621-16.453 18.453l10.66 92.567c3.2 27.738-18.488 52.074-46.41 52.074h-79.758a16.56 16.56 0 0 0-16.335 13.836c-1.868 11.18 6.757 21.355 18.093 21.355h175.09c11.336 0 19.961-10.176 18.098-21.355m0 0"/></g><path fill="none" stroke="#000" stroke-width="3" d="M24.457 17.281h120"/></svg>